<svg xmlns="http://www.w3.org/2000/svg" version="1.1" xmlns:xlink="http://www.w3.org/1999/xlink" width="200" height="200"><svg xmlns="http://www.w3.org/2000/svg" version="1.1" xmlns:xlink="http://www.w3.org/1999/xlink" viewBox="0 0 200 200"><rect width="200" height="200" fill="url('#gradient')"></rect><defs><linearGradient id="SvgjsLinearGradient1001" gradientTransform="rotate(0 0.5 0.5)"><stop offset="0%" stop-color="#ffffff"></stop><stop offset="100%" stop-color="#ffffff"></stop></linearGradient></defs><g><g fill="#000000" transform="matrix(4.422264875239923,0,0,4.422264875239923,8.280037730989434,126.71051877840009)" stroke="#000000" stroke-width="0.5"><path d="M6.10 1.79L5.49 3.52Q1.97 2.53 1.97-1.03L1.97-1.03L1.97-2.96Q1.97-4.93 0.39-4.93L0.39-4.93L0.39-7.15Q1.97-7.15 1.97-9.13L1.97-9.13L1.97-11.18Q2.00-12.94 2.89-14.02Q3.77-15.11 5.49-15.60L5.49-15.60L6.10-13.88Q4.87-13.41 4.82-11.25L4.82-11.25L4.82-9.13Q4.82-6.94 3.02-6.04L3.02-6.04Q4.82-5.15 4.82-2.95L4.82-2.95L4.82-0.84Q4.87 1.32 6.10 1.79L6.10 1.79ZM17.23-5.36L17.23-5.20Q17.23-2.60 16.15-1.20Q15.08 0.20 13.13 0.20L13.13 0.20Q11.51 0.20 10.53-1.08L10.53-1.08L10.39 0L7.44 0L7.44-15L10.73-15L10.73-9.72Q11.65-10.76 13.11-10.76L13.11-10.76Q15.08-10.76 16.15-9.35Q17.23-7.93 17.23-5.36L17.23-5.36ZM13.93-5.40L13.93-5.40Q13.93-6.92 13.52-7.57Q13.12-8.22 12.28-8.22L12.28-8.22Q11.16-8.22 10.73-7.37L10.73-7.37L10.73-3.17Q11.15-2.33 12.29-2.33L12.29-2.33Q13.46-2.33 13.77-3.47L13.77-3.47Q13.93-4.02 13.93-5.40ZM18.70-10.57L21.79-10.57L21.89-9.33Q23.02-10.76 24.91-10.76L24.91-10.76Q26.91-10.76 27.62-9.17L27.62-9.17Q28.69-10.76 30.72-10.76L30.72-10.76Q33.94-10.76 34.02-6.88L34.02-6.88L34.02 0L30.72 0L30.72-6.67Q30.72-7.48 30.45-7.85Q30.18-8.22 29.45-8.22L29.45-8.22Q28.48-8.22 28.00-7.35L28.00-7.35L28.01-7.22L28.01 0L24.71 0L24.71-6.65Q24.71-7.48 24.44-7.85Q24.18-8.22 23.44-8.22L23.44-8.22Q22.49-8.22 21.99-7.35L21.99-7.35L21.99 0L18.70 0L18.70-10.57ZM36.00 3.52L35.38 1.79Q36.61 1.32 36.66-0.84L36.66-0.84L36.66-2.96Q36.66-5.16 38.48-6.04L38.48-6.04Q36.66-6.93 36.66-9.13L36.66-9.13L36.66-11.25Q36.61-13.41 35.38-13.88L35.38-13.88L36.00-15.60Q37.74-15.11 38.62-14.00Q39.50-12.89 39.51-11.09L39.51-11.09L39.51-9.13Q39.51-7.15 41.09-7.15L41.09-7.15L41.09-4.93Q39.51-4.93 39.51-2.97L39.51-2.97L39.51-0.89Q39.44 2.55 36.00 3.52L36.00 3.52Z"></path></g></g></svg><style>@media (prefers-color-scheme: light) { :root { filter: none; } }
@media (prefers-color-scheme: dark) { :root { filter: none; } }
</style></svg>